ply
format ascii 1.0
element vertex 590
property float x
property float y
property float z
property uint8 red
property uint8 green
property uint8 blue
end_header
-15.020000 3.000000 -33.280000 0 0 255
-15.020000 3.000000 -33.280000 0 0 255
-15.020000 3.000000 -32.670000 0 0 255
-15.020000 3.000000 -31.460000 0 0 255
-15.020000 3.000000 -33.280000 0 0 255
-15.020000 3.000000 -32.070000 0 0 255
-15.020000 3.000000 -32.070000 0 0 255
-15.020000 3.000000 -32.070000 0 0 255
-15.020000 3.000000 -33.880000 0 0 255
-15.020000 3.000000 -32.670000 0 0 255
-15.020000 3.000000 -32.070000 0 0 255
-15.020000 3.000000 -32.670000 0 0 255
-15.020000 3.000000 -32.670000 0 0 255
-15.020000 3.000000 -32.670000 0 0 255
-15.020000 3.000000 -33.280000 0 0 255
-15.020000 3.000000 -32.670000 0 0 255
-15.020000 3.000000 -33.280000 0 0 255
-15.020000 3.000000 -32.670000 0 0 255
-15.020000 3.000000 -31.460000 0 0 255
-15.020000 3.000000 -32.670000 0 0 255
-15.020000 3.000000 -32.070000 0 0 255
-15.020000 3.000000 -33.280000 0 0 255
-15.020000 3.000000 -33.880000 0 0 255
-15.020000 3.000000 -33.880000 0 0 255
-15.020000 3.000000 -32.670000 0 0 255
-15.020000 3.000000 -33.280000 0 0 255
-15.020000 3.000000 -32.670000 0 0 255
-15.020000 3.000000 -32.670000 0 0 255
-15.020000 3.000000 -32.070000 0 0 255
-15.020000 3.000000 -33.880000 0 0 255
-15.020000 3.000000 -32.670000 0 0 255
-15.020000 3.000000 -32.670000 0 0 255
-15.020000 3.000000 -33.280000 0 0 255
-15.020000 3.000000 -32.070000 0 0 255
-15.020000 3.000000 -31.460000 0 0 255
-15.020000 3.000000 -31.460000 0 0 255
-15.020000 3.000000 -32.670000 0 0 255
-15.020000 3.000000 -31.460000 0 0 255
-15.020000 3.000000 -33.880000 0 0 255
-15.020000 3.000000 -32.070000 0 0 255
-15.020000 3.000000 -32.670000 0 0 255
-15.020000 3.000000 -33.280000 0 0 255
-15.020000 3.000000 -33.280000 0 0 255
-15.020000 3.000000 -34.490000 0 0 255
-15.020000 3.000000 -32.670000 0 0 255
-15.020000 3.000000 -32.670000 0 0 255
-15.020000 3.000000 -33.280000 0 0 255
-15.020000 3.000000 -32.670000 0 0 255
-15.020000 3.000000 -32.070000 0 0 255
-15.020000 3.000000 -32.670000 0 0 255
-15.020000 3.000000 -33.280000 0 0 255
-15.020000 3.000000 -31.460000 0 0 255
-15.020000 3.000000 -32.670000 0 0 255
-15.020000 3.000000 -33.880000 0 0 255
-15.020000 3.000000 -33.280000 0 0 255
-15.020000 3.000000 -33.280000 0 0 255
-15.020000 3.000000 -34.490000 0 0 255
-15.020000 3.000000 -33.280000 0 0 255
-15.020000 3.000000 -33.280000 0 0 255
-15.020000 3.000000 -32.670000 0 0 255
-15.020000 3.000000 -33.280000 0 0 255
-15.020000 3.000000 -32.670000 0 0 255
-15.020000 3.000000 -32.670000 0 0 255
-15.020000 3.000000 -33.880000 0 0 255
-15.020000 3.000000 -33.280000 0 0 255
-15.020000 3.000000 -33.280000 0 0 255
-15.020000 3.000000 -32.070000 0 0 255
-15.020000 3.000000 -32.670000 0 0 255
-15.020000 3.000000 -32.670000 0 0 255
-15.020000 3.000000 -32.670000 0 0 255
-15.020000 3.000000 -32.070000 0 0 255
-15.020000 3.000000 -31.460000 0 0 255
-15.020000 3.000000 -33.280000 0 0 255
-15.020000 3.000000 -32.670000 0 0 255
-15.020000 3.000000 -34.490000 0 0 255
-15.020000 3.000000 -32.670000 0 0 255
-15.020000 3.000000 -32.670000 0 0 255
-15.020000 3.000000 -32.070000 0 0 255
-15.020000 3.000000 -32.070000 0 0 255
-15.020000 0.000000 -31.460000 0 0 255
-15.020000 3.000000 -30.860000 0 0 255
-15.020000 3.000000 -32.070000 0 0 255
-15.020000 3.000000 -31.460000 0 0 255
-15.020000 3.000000 -32.070000 0 0 255
-15.020000 3.000000 -31.460000 0 0 255
-15.020000 3.000000 -32.070000 0 0 255
-15.020000 3.000000 -32.070000 0 0 255
-15.020000 3.000000 -32.070000 0 0 255
-15.020000 3.000000 -31.460000 0 0 255
-15.020000 3.000000 -33.880000 0 0 255
-15.020000 3.000000 -31.460000 0 0 255
-15.020000 3.000000 -31.460000 0 0 255
-15.020000 3.000000 -31.460000 0 0 255
-15.020000 3.000000 -31.460000 0 0 255
-15.020000 3.000000 -33.280000 0 0 255
-15.020000 3.000000 -32.670000 0 0 255
-15.020000 3.000000 -32.670000 0 0 255
-15.020000 3.000000 -31.460000 0 0 255
-15.020000 3.000000 -32.670000 0 0 255
-15.020000 3.000000 -33.280000 0 0 255
-15.020000 3.000000 -32.670000 0 0 255
-15.020000 3.000000 -32.670000 0 0 255
-15.020000 3.000000 -32.670000 0 0 255
-15.020000 3.000000 -33.880000 0 0 255
-15.020000 3.000000 -33.280000 0 0 255
-15.020000 3.000000 -31.460000 0 0 255
-15.020000 3.000000 -32.070000 0 0 255
-15.020000 3.000000 -32.670000 0 0 255
-15.020000 3.000000 -33.280000 0 0 255
-15.020000 3.000000 -32.070000 0 0 255
-15.020000 3.000000 -32.070000 0 0 255
-15.020000 3.000000 -32.070000 0 0 255
-15.020000 3.000000 -33.880000 0 0 255
-15.020000 3.000000 -31.460000 0 0 255
-15.020000 3.000000 -33.880000 0 0 255
-15.020000 3.000000 -33.280000 0 0 255
-15.020000 3.000000 -31.460000 0 0 255
-15.020000 3.000000 -34.490000 0 0 255
-15.020000 3.000000 -33.280000 0 0 255
-15.020000 3.000000 -34.490000 0 0 255
-15.020000 3.000000 -33.280000 0 0 255
-15.020000 3.000000 -33.880000 0 0 255
-15.020000 3.000000 -32.070000 0 0 255
-15.020000 3.000000 -32.670000 0 0 255
-15.020000 3.000000 -32.670000 0 0 255
-15.020000 3.000000 -32.070000 0 0 255
-15.020000 3.000000 -32.070000 0 0 255
-15.020000 3.000000 -33.280000 0 0 255
-15.020000 3.000000 -31.460000 0 0 255
-15.020000 3.000000 -32.070000 0 0 255
-15.020000 3.000000 -32.670000 0 0 255
-15.020000 3.000000 -32.070000 0 0 255
-15.020000 3.000000 -33.280000 0 0 255
-15.020000 3.000000 -31.460000 0 0 255
-15.020000 3.000000 -32.670000 0 0 255
-15.020000 3.000000 -32.070000 0 0 255
-15.020000 3.000000 -33.880000 0 0 255
-15.020000 3.000000 -33.280000 0 0 255
-15.020000 3.000000 -31.460000 0 0 255
-15.020000 3.000000 -32.670000 0 0 255
-15.020000 3.000000 -32.670000 0 0 255
-15.020000 3.000000 -32.070000 0 0 255
-15.020000 3.000000 -32.670000 0 0 255
-15.020000 3.000000 -30.860000 0 0 255
-15.020000 3.000000 -32.070000 0 0 255
-15.020000 3.000000 -32.070000 0 0 255
-15.020000 3.000000 -32.070000 0 0 255
-15.020000 3.000000 -32.670000 0 0 255
-15.020000 3.000000 -32.670000 0 0 255
-15.020000 3.000000 -32.670000 0 0 255
-15.020000 3.000000 -31.460000 0 0 255
-15.020000 3.000000 -32.670000 0 0 255
-15.020000 3.000000 -33.280000 0 0 255
-15.020000 3.000000 -31.460000 0 0 255
-15.020000 3.000000 -32.670000 0 0 255
-15.020000 3.000000 -33.880000 0 0 255
-15.020000 3.000000 -34.490000 0 0 255
-15.020000 3.000000 -32.070000 0 0 255
-15.020000 3.000000 -32.670000 0 0 255
-15.020000 3.000000 -33.280000 0 0 255
-15.020000 3.000000 -33.880000 0 0 255
-15.020000 3.000000 -33.280000 0 0 255
-15.020000 3.000000 -33.280000 0 0 255
-15.020000 3.000000 -32.070000 0 0 255
-15.020000 3.000000 -34.490000 0 0 255
-15.020000 3.000000 -32.670000 0 0 255
-15.020000 3.000000 -31.460000 0 0 255
-18.020000 3.000000 -39.930000 0 0 255
-30.040000 9.010000 -53.240000 0 0 255
-42.060000 12.020000 -61.710000 0 0 255
-42.060000 12.020000 -64.130000 0 0 255
-45.060000 12.020000 -65.940000 0 0 255
-45.060000 12.020000 -64.740000 0 0 255
-48.060000 15.020000 -65.940000 0 0 255
-48.060000 12.020000 -63.530000 0 0 255
-45.060000 12.020000 -63.530000 0 0 255
-45.060000 12.020000 -65.940000 0 0 255
-45.060000 12.020000 -64.130000 0 0 255
-45.060000 12.020000 -63.530000 0 0 255
-45.060000 12.020000 -64.130000 0 0 255
-48.060000 12.020000 -64.130000 0 0 255
-48.060000 12.020000 -64.130000 0 0 255
-45.060000 12.020000 -64.130000 0 0 255
-45.060000 12.020000 -63.530000 0 0 255
-45.060000 12.020000 -64.130000 0 0 255
-48.060000 12.020000 -64.130000 0 0 255
-48.060000 12.020000 -65.340000 0 0 255
-48.060000 12.020000 -63.530000 0 0 255
-45.060000 12.020000 -64.130000 0 0 255
-45.060000 12.020000 -64.130000 0 0 255
-48.060000 12.020000 -63.530000 0 0 255
-45.060000 12.020000 -64.130000 0 0 255
-45.060000 12.020000 -64.130000 0 0 255
-45.060000 12.020000 -65.340000 0 0 255
-48.060000 12.020000 -64.740000 0 0 255
-45.060000 12.020000 -66.550000 0 0 255
-45.060000 12.020000 -65.340000 0 0 255
-45.060000 12.020000 -65.940000 0 0 255
-45.060000 12.020000 -65.340000 0 0 255
-45.060000 12.020000 -63.530000 0 0 255
-45.060000 12.020000 -63.530000 0 0 255
-48.060000 12.020000 -65.940000 0 0 255
-45.060000 12.020000 -65.340000 0 0 255
-45.060000 12.020000 -64.130000 0 0 255
-48.060000 12.020000 -64.740000 0 0 255
-45.060000 12.020000 -66.550000 0 0 255
-48.060000 12.020000 -65.340000 0 0 255
-45.060000 12.020000 -64.130000 0 0 255
-45.060000 12.020000 -64.740000 0 0 255
-45.060000 12.020000 -64.740000 0 0 255
-45.060000 12.020000 -66.550000 0 0 255
-45.060000 12.020000 -65.940000 0 0 255
-45.060000 12.020000 -64.740000 0 0 255
-45.060000 12.020000 -65.340000 0 0 255
-45.060000 12.020000 -64.740000 0 0 255
-45.060000 12.020000 -65.340000 0 0 255
-48.060000 12.020000 -64.740000 0 0 255
-45.060000 12.020000 -65.940000 0 0 255
-48.060000 12.020000 -64.740000 0 0 255
-45.060000 12.020000 -65.340000 0 0 255
-45.060000 12.020000 -65.340000 0 0 255
-45.060000 12.020000 -65.340000 0 0 255
-45.060000 12.020000 -64.130000 0 0 255
-45.060000 12.020000 -65.940000 0 0 255
-48.060000 12.020000 -64.740000 0 0 255
-48.060000 12.020000 -64.740000 0 0 255
-45.060000 12.020000 -63.530000 0 0 255
-45.060000 12.020000 -65.340000 0 0 255
-45.060000 12.020000 -64.740000 0 0 255
-45.060000 12.020000 -64.740000 0 0 255
-45.060000 12.020000 -64.740000 0 0 255
-48.060000 12.020000 -64.740000 0 0 255
-45.060000 12.020000 -64.130000 0 0 255
-45.060000 12.020000 -65.940000 0 0 255
-48.060000 12.020000 -65.940000 0 0 255
-48.060000 12.020000 -65.940000 0 0 255
-45.060000 12.020000 -64.740000 0 0 255
-45.060000 12.020000 -64.740000 0 0 255
-45.060000 12.020000 -65.340000 0 0 255
-48.060000 12.020000 -64.740000 0 0 255
-45.060000 12.020000 -65.940000 0 0 255
-45.060000 12.020000 -64.740000 0 0 255
-45.060000 12.020000 -65.340000 0 0 255
-48.060000 12.020000 -65.340000 0 0 255
-45.060000 12.020000 -65.340000 0 0 255
-45.060000 12.020000 -64.130000 0 0 255
-45.060000 12.020000 -65.940000 0 0 255
-45.060000 12.020000 -65.340000 0 0 255
-48.060000 12.020000 -64.740000 0 0 255
-45.060000 12.020000 -65.340000 0 0 255
-45.060000 12.020000 -64.740000 0 0 255
-45.060000 12.020000 -64.740000 0 0 255
-45.060000 12.020000 -62.920000 0 0 255
-45.060000 12.020000 -63.530000 0 0 255
-48.060000 12.020000 -63.530000 0 0 255
-45.060000 12.020000 -64.130000 0 0 255
-48.060000 12.020000 -62.920000 0 0 255
-48.060000 12.020000 -65.940000 0 0 255
-48.060000 12.020000 -64.130000 0 0 255
-45.060000 12.020000 -64.130000 0 0 255
-45.060000 12.020000 -64.130000 0 0 255
-45.060000 12.020000 -65.340000 0 0 255
-45.060000 12.020000 -63.530000 0 0 255
-45.060000 12.020000 -63.530000 0 0 255
-45.060000 12.020000 -64.740000 0 0 255
-48.060000 12.020000 -62.920000 0 0 255
-45.060000 12.020000 -62.920000 0 0 255
-48.060000 12.020000 -63.530000 0 0 255
-48.060000 12.020000 -64.130000 0 0 255
-45.060000 12.020000 -65.340000 0 0 255
-45.060000 12.020000 -65.940000 0 0 255
-45.060000 12.020000 -65.340000 0 0 255
-45.060000 12.020000 -64.740000 0 0 255
-45.060000 12.020000 -65.340000 0 0 255
-45.060000 12.020000 -64.130000 0 0 255
-45.060000 12.020000 -64.740000 0 0 255
-45.060000 12.020000 -64.740000 0 0 255
-45.060000 12.020000 -64.740000 0 0 255
-45.060000 12.020000 -65.340000 0 0 255
-45.060000 12.020000 -64.130000 0 0 255
-45.060000 12.020000 -64.130000 0 0 255
-45.060000 12.020000 -65.340000 0 0 255
-45.060000 12.020000 -64.740000 0 0 255
-45.060000 12.020000 -64.740000 0 0 255
-45.060000 12.020000 -64.740000 0 0 255
-48.060000 9.010000 -65.940000 0 0 255
-45.060000 12.020000 -64.130000 0 0 255
-45.060000 12.020000 -65.940000 0 0 255
-45.060000 12.020000 -65.340000 0 0 255
-45.060000 12.020000 -65.940000 0 0 255
-45.060000 9.010000 -64.740000 0 0 255
-45.060000 12.020000 -64.740000 0 0 255
-48.060000 12.020000 -64.130000 0 0 255
-45.060000 12.020000 -65.940000 0 0 255
-45.060000 12.020000 -64.130000 0 0 255
-45.060000 12.020000 -65.940000 0 0 255
-45.060000 12.020000 -63.530000 0 0 255
-45.060000 12.020000 -65.340000 0 0 255
-45.060000 12.020000 -65.940000 0 0 255
-48.060000 12.020000 -63.530000 0 0 255
-48.060000 12.020000 -65.340000 0 0 255
-48.060000 12.020000 -63.530000 0 0 255
-48.060000 12.020000 -65.940000 0 0 255
-48.060000 12.020000 -64.740000 0 0 255
-48.060000 12.020000 -64.130000 0 0 255
-48.060000 12.020000 -65.940000 0 0 255
-45.060000 12.020000 -65.340000 0 0 255
-48.060000 9.010000 -64.740000 0 0 255
-45.060000 12.020000 -64.130000 0 0 255
-48.060000 12.020000 -65.940000 0 0 255
-45.060000 12.020000 -64.740000 0 0 255
-45.060000 12.020000 -64.740000 0 0 255
-45.060000 12.020000 -64.130000 0 0 255
-45.060000 12.020000 -64.130000 0 0 255
-45.060000 12.020000 -65.340000 0 0 255
-45.060000 12.020000 -64.740000 0 0 255
-48.060000 12.020000 -64.130000 0 0 255
-45.060000 12.020000 -65.340000 0 0 255
-45.060000 12.020000 -64.740000 0 0 255
-45.060000 12.020000 -64.130000 0 0 255
-45.060000 12.020000 -65.340000 0 0 255
-45.060000 12.020000 -65.940000 0 0 255
-45.060000 12.020000 -64.740000 0 0 255
-45.060000 12.020000 -64.740000 0 0 255
-45.060000 12.020000 -64.130000 0 0 255
-45.060000 12.020000 -65.340000 0 0 255
-45.060000 12.020000 -65.940000 0 0 255
-45.060000 12.020000 -64.740000 0 0 255
-45.060000 12.020000 -65.940000 0 0 255
-48.060000 12.020000 -64.740000 0 0 255
-45.060000 12.020000 -64.740000 0 0 255
-45.060000 12.020000 -64.740000 0 0 255
-45.060000 12.020000 -65.340000 0 0 255
-45.060000 12.020000 -64.130000 0 0 255
-45.060000 9.010000 -62.320000 0 0 255
-42.060000 9.010000 -59.900000 0 0 255
-42.060000 9.010000 -56.870000 0 0 255
-42.060000 9.010000 -55.660000 0 0 255
-39.050000 9.010000 -55.660000 0 0 255
-39.050000 6.010000 -54.450000 0 0 255
-39.050000 6.010000 -52.640000 0 0 255
-39.050000 6.010000 -53.240000 0 0 255
-36.050000 6.010000 -50.820000 0 0 255
-36.050000 6.010000 -49.610000 0 0 255
-33.040000 6.010000 -45.980000 0 0 255
-30.040000 3.000000 -42.960000 0 0 255
-30.040000 3.000000 -41.140000 0 0 255
-27.040000 3.000000 -39.330000 0 0 255
-24.030000 3.000000 -35.690000 0 0 255
-21.030000 3.000000 -34.490000 0 0 255
-24.030000 3.000000 -35.090000 0 0 255
-21.030000 3.000000 -33.880000 0 0 255
-21.030000 3.000000 -33.280000 0 0 255
-24.030000 0.000000 -34.490000 0 0 255
-21.030000 3.000000 -33.280000 0 0 255
-21.030000 3.000000 -33.880000 0 0 255
-21.030000 3.000000 -34.490000 0 0 255
-21.030000 0.000000 -35.090000 0 0 255
-21.030000 3.000000 -34.490000 0 0 255
-21.030000 3.000000 -34.490000 0 0 255
-24.030000 0.000000 -33.880000 0 0 255
-21.030000 3.000000 -35.090000 0 0 255
-21.030000 3.000000 -33.880000 0 0 255
-21.030000 0.000000 -36.300000 0 0 255
-24.030000 3.000000 -34.490000 0 0 255
-21.030000 0.000000 -33.280000 0 0 255
-21.030000 3.000000 -35.090000 0 0 255
-21.030000 3.000000 -33.880000 0 0 255
-21.030000 3.000000 -35.090000 0 0 255
-21.030000 3.000000 -33.880000 0 0 255
-21.030000 3.000000 -33.880000 0 0 255
-21.030000 3.000000 -34.490000 0 0 255
-21.030000 3.000000 -34.490000 0 0 255
-21.030000 3.000000 -33.880000 0 0 255
-24.030000 3.000000 -33.280000 0 0 255
-24.030000 3.000000 -34.490000 0 0 255
-21.030000 0.000000 -34.490000 0 0 255
-24.030000 3.000000 -33.280000 0 0 255
-21.030000 0.000000 -33.880000 0 0 255
-21.030000 3.000000 -33.880000 0 0 255
-24.030000 3.000000 -33.880000 0 0 255
-21.030000 3.000000 -35.090000 0 0 255
-24.030000 3.000000 -33.880000 0 0 255
-21.030000 0.000000 -33.880000 0 0 255
-24.030000 3.000000 -33.880000 0 0 255
-21.030000 3.000000 -34.490000 0 0 255
-24.030000 3.000000 -34.490000 0 0 255
-21.030000 3.000000 -34.490000 0 0 255
-21.030000 0.000000 -33.880000 0 0 255
-21.030000 3.000000 -33.880000 0 0 255
-24.030000 3.000000 -32.670000 0 0 255
-21.030000 3.000000 -34.490000 0 0 255
-21.030000 3.000000 -35.690000 0 0 255
-24.030000 3.000000 -35.690000 0 0 255
-24.030000 3.000000 -35.090000 0 0 255
-24.030000 3.000000 -33.880000 0 0 255
-21.030000 3.000000 -34.490000 0 0 255
-24.030000 3.000000 -35.090000 0 0 255
-21.030000 0.000000 -33.280000 0 0 255
-21.030000 0.000000 -33.880000 0 0 255
-21.030000 3.000000 -35.690000 0 0 255
-24.030000 0.000000 -34.490000 0 0 255
-21.030000 3.000000 -34.490000 0 0 255
-24.030000 0.000000 -35.090000 0 0 255
-21.030000 3.000000 -34.490000 0 0 255
-24.030000 0.000000 -35.090000 0 0 255
-21.030000 3.000000 -34.490000 0 0 255
-24.030000 3.000000 -34.490000 0 0 255
-21.030000 0.000000 -35.690000 0 0 255
-39.050000 9.010000 -57.480000 0 0 255
-39.050000 9.010000 -57.480000 0 0 255
-42.060000 9.010000 -60.500000 0 0 255
-45.060000 12.020000 -62.920000 0 0 255
-45.060000 12.020000 -65.340000 0 0 255
-45.060000 12.020000 -64.130000 0 0 255
-45.060000 12.020000 -65.340000 0 0 255
-45.060000 12.020000 -65.340000 0 0 255
-45.060000 12.020000 -64.740000 0 0 255
-48.060000 9.010000 -65.340000 0 0 255
-45.060000 9.010000 -63.530000 0 0 255
-48.060000 12.020000 -64.740000 0 0 255
-45.060000 12.020000 -64.740000 0 0 255
-45.060000 12.020000 -64.740000 0 0 255
-48.060000 12.020000 -65.340000 0 0 255
-48.060000 12.020000 -64.130000 0 0 255
-45.060000 12.020000 -64.740000 0 0 255
-48.060000 12.020000 -64.740000 0 0 255
-45.060000 12.020000 -64.130000 0 0 255
-45.060000 12.020000 -64.740000 0 0 255
-45.060000 12.020000 -64.740000 0 0 255
-45.060000 12.020000 -65.340000 0 0 255
-45.060000 12.020000 -65.340000 0 0 255
-45.060000 12.020000 -65.940000 0 0 255
-45.060000 12.020000 -65.340000 0 0 255
-45.060000 12.020000 -64.740000 0 0 255
-45.060000 12.020000 -65.340000 0 0 255
-45.060000 12.020000 -64.740000 0 0 255
-45.060000 12.020000 -66.550000 0 0 255
-45.060000 12.020000 -64.740000 0 0 255
-45.060000 12.020000 -64.740000 0 0 255
-45.060000 12.020000 -64.130000 0 0 255
-48.060000 12.020000 -65.340000 0 0 255
-48.060000 12.020000 -65.340000 0 0 255
-45.060000 12.020000 -64.740000 0 0 255
-45.060000 12.020000 -65.340000 0 0 255
-45.060000 12.020000 -66.550000 0 0 255
-45.060000 12.020000 -65.340000 0 0 255
-45.060000 12.020000 -65.940000 0 0 255
-45.060000 12.020000 -64.740000 0 0 255
-45.060000 12.020000 -64.130000 0 0 255
-48.060000 12.020000 -64.740000 0 0 255
-45.060000 12.020000 -65.340000 0 0 255
-48.060000 12.020000 -64.130000 0 0 255
-45.060000 12.020000 -64.740000 0 0 255
-48.060000 12.020000 -64.740000 0 0 255
-45.060000 12.020000 -65.340000 0 0 255
-48.060000 12.020000 -64.130000 0 0 255
-45.060000 12.020000 -64.740000 0 0 255
-45.060000 12.020000 -64.740000 0 0 255
-45.060000 12.020000 -64.130000 0 0 255
-48.060000 12.020000 -62.920000 0 0 255
-45.060000 12.020000 -63.530000 0 0 255
-45.060000 12.020000 -63.530000 0 0 255
-45.060000 12.020000 -64.130000 0 0 255
-48.060000 12.020000 -64.740000 0 0 255
-48.060000 12.020000 -65.340000 0 0 255
-45.060000 12.020000 -64.740000 0 0 255
-45.060000 9.010000 -65.340000 0 0 255
-45.060000 9.010000 -64.130000 0 0 255
-42.060000 6.010000 -57.480000 0 0 255
-39.050000 9.010000 -56.270000 0 0 255
-39.050000 6.010000 -53.850000 0 0 255
-39.050000 6.010000 -53.240000 0 0 255
-39.050000 6.010000 -52.640000 0 0 255
-36.050000 6.010000 -52.030000 0 0 255
-39.050000 6.010000 -53.850000 0 0 255
-39.050000 6.010000 -52.030000 0 0 255
-33.040000 3.000000 -41.750000 0 0 255
-27.040000 3.000000 -38.720000 0 0 255
-24.030000 3.000000 -33.880000 0 0 255
-21.030000 3.000000 -35.690000 0 0 255
-24.030000 0.000000 -33.880000 0 0 255
-24.030000 3.000000 -33.880000 0 0 255
-21.030000 3.000000 -34.490000 0 0 255
-24.030000 3.000000 -33.280000 0 0 255
-21.030000 0.000000 -33.880000 0 0 255
-21.030000 3.000000 -35.690000 0 0 255
-21.030000 3.000000 -34.490000 0 0 255
-21.030000 3.000000 -33.880000 0 0 255
-24.030000 3.000000 -33.880000 0 0 255
-24.030000 3.000000 -35.690000 0 0 255
-24.030000 3.000000 -34.490000 0 0 255
-21.030000 3.000000 -34.490000 0 0 255
-24.030000 3.000000 -34.490000 0 0 255
-24.030000 3.000000 -33.880000 0 0 255
-24.030000 3.000000 -35.690000 0 0 255
-24.030000 3.000000 -33.880000 0 0 255
-21.030000 0.000000 -34.490000 0 0 255
-24.030000 3.000000 -34.490000 0 0 255
-24.030000 3.000000 -34.490000 0 0 255
-24.030000 0.000000 -33.280000 0 0 255
-24.030000 3.000000 -33.880000 0 0 255
-24.030000 3.000000 -34.490000 0 0 255
-21.030000 3.000000 -35.090000 0 0 255
-21.030000 3.000000 -33.880000 0 0 255
-24.030000 3.000000 -34.490000 0 0 255
-21.030000 3.000000 -33.880000 0 0 255
-21.030000 3.000000 -35.690000 0 0 255
-24.030000 3.000000 -35.090000 0 0 255
-24.030000 3.000000 -33.280000 0 0 255
-24.030000 3.000000 -33.880000 0 0 255
-21.030000 3.000000 -35.090000 0 0 255
-24.030000 3.000000 -33.280000 0 0 255
-21.030000 3.000000 -32.670000 0 0 255
-21.030000 3.000000 -34.490000 0 0 255
-21.030000 3.000000 -33.880000 0 0 255
-24.030000 3.000000 -35.690000 0 0 255
-24.030000 3.000000 -35.090000 0 0 255
-21.030000 3.000000 -34.490000 0 0 255
-21.030000 3.000000 -33.880000 0 0 255
-24.030000 3.000000 -33.880000 0 0 255
-24.030000 3.000000 -33.280000 0 0 255
-24.030000 3.000000 -33.280000 0 0 255
-21.030000 3.000000 -34.490000 0 0 255
-24.030000 3.000000 -34.490000 0 0 255
-24.030000 3.000000 -34.490000 0 0 255
-24.030000 3.000000 -33.880000 0 0 255
-24.030000 0.000000 -33.880000 0 0 255
-24.030000 3.000000 -35.090000 0 0 255
-21.030000 3.000000 -34.490000 0 0 255
-24.030000 3.000000 -34.490000 0 0 255
-24.030000 3.000000 -33.880000 0 0 255
-24.030000 3.000000 -33.280000 0 0 255
-21.030000 3.000000 -35.690000 0 0 255
-21.030000 3.000000 -35.090000 0 0 255
-24.030000 0.000000 -34.490000 0 0 255
-24.030000 3.000000 -34.490000 0 0 255
-21.030000 3.000000 -35.090000 0 0 255
-24.030000 0.000000 -34.490000 0 0 255
-45.060000 12.020000 -63.530000 0 0 255
-45.060000 12.020000 -63.530000 0 0 255
-48.060000 12.020000 -63.530000 0 0 255
-45.060000 12.020000 -63.530000 0 0 255
-45.060000 12.020000 -64.740000 0 0 255
-45.060000 12.020000 -63.530000 0 0 255
-48.060000 12.020000 -62.920000 0 0 255
-45.060000 12.020000 -64.130000 0 0 255
-48.060000 12.020000 -63.530000 0 0 255
-45.060000 12.020000 -62.920000 0 0 255
-45.060000 12.020000 -64.130000 0 0 255
-45.060000 12.020000 -65.340000 0 0 255
-48.060000 12.020000 -65.340000 0 0 255
-48.060000 12.020000 -64.130000 0 0 255
-48.060000 12.020000 -64.740000 0 0 255
-48.060000 12.020000 -64.740000 0 0 255
-45.060000 12.020000 -63.530000 0 0 255
-48.060000 12.020000 -64.740000 0 0 255
-45.060000 12.020000 -64.740000 0 0 255
-45.060000 12.020000 -64.130000 0 0 255
-45.060000 12.020000 -64.130000 0 0 255
-48.060000 12.020000 -64.130000 0 0 255
-45.060000 12.020000 -64.130000 0 0 255
-48.060000 12.020000 -64.740000 0 0 255
-48.060000 12.020000 -65.340000 0 0 255
-48.060000 12.020000 -63.530000 0 0 255
-48.060000 12.020000 -63.530000 0 0 255
-48.060000 12.020000 -64.740000 0 0 255
-48.060000 9.010000 -64.130000 0 0 255
-48.060000 12.020000 -62.920000 0 0 255
-45.060000 12.020000 -64.130000 0 0 255
-48.060000 12.020000 -64.740000 0 0 255
-45.060000 12.020000 -64.740000 0 0 255
-48.060000 12.020000 -63.530000 0 0 255
-45.060000 12.020000 -64.130000 0 0 255
-45.060000 12.020000 -63.530000 0 0 255
-48.060000 12.020000 -65.340000 0 0 255
-48.060000 12.020000 -64.740000 0 0 255
-48.060000 12.020000 -63.530000 0 0 255
-45.060000 12.020000 -65.340000 0 0 255
-45.060000 12.020000 -62.920000 0 0 255
-48.060000 12.020000 -64.130000 0 0 255
-45.060000 12.020000 -65.340000 0 0 255
-45.060000 12.020000 -65.340000 0 0 255
-48.060000 12.020000 -64.130000 0 0 255
-48.060000 12.020000 -64.130000 0 0 255
-48.060000 12.020000 -62.920000 0 0 255
-45.060000 12.020000 -63.530000 0 0 255
-45.060000 12.020000 -64.130000 0 0 255
-48.060000 12.020000 -63.530000 0 0 255
-45.060000 12.020000 -62.920000 0 0 255
