{
    "asset" : {
        "generator" : "Khronos glTF Blender I/O v1.7.33",
        "version" : "2.0"
    },
    "scene" : 0,
    "scenes" : [
        {
            "name" : "Scene",
            "nodes" : [
                0,
                1,
                2,
                3,
                4,
                5,
                6,
                7,
                8,
                9,
                10,
                11,
                12,
                13,
                14,
                15,
                16,
                17
            ]
        }
    ],
    "nodes" : [
        {
            "name" : "dataset"
        },
        {
            "mesh" : 0,
            "name" : "open",
            "scale" : [
                7.6814751625061035,
                7.6814799308776855,
                7.6814799308776855
            ],
            "translation" : [
                6.171983242034912,
                -22.46197509765625,
                6.576704978942871
            ]
        },
        {
            "mesh" : 1,
            "name" : "open.007",
            "scale" : [
                7.477043628692627,
                7.477039813995361,
                7.477039813995361
            ],
            "translation" : [
                0.5058999061584473,
                -22.259614944458008,
                8.29676628112793
            ]
        },
        {
            "mesh" : 2,
            "name" : "open.006",
            "scale" : [
                8.32109260559082,
                8.321093559265137,
                8.321093559265137
            ],
            "translation" : [
                -4.249562740325928,
                -23.069055557250977,
                10.927447319030762
            ]
        },
        {
            "mesh" : 3,
            "name" : "open.005",
            "scale" : [
                8.439132690429688,
                8.439132690429688,
                8.439136505126953
            ],
            "translation" : [
                -9.713285446166992,
                -24.99147605895996,
                12.445148468017578
            ]
        },
        {
            "mesh" : 4,
            "name" : "open.004",
            "scale" : [
                8.87957763671875,
                8.87957763671875,
                8.879581451416016
            ],
            "translation" : [
                -14.569928169250488,
                -27.015077590942383,
                11.838068008422852
            ]
        },
        {
            "mesh" : 5,
            "name" : "open.003",
            "scale" : [
                9.46346378326416,
                9.46346378326416,
                9.46346378326416
            ],
            "translation" : [
                -19.325389862060547,
                -29.342220306396484,
                7.5685553550720215
            ]
        },
        {
            "mesh" : 6,
            "name" : "open.002",
            "scale" : [
                12.421310424804688,
                12.421310424804688,
                12.421299934387207
            ],
            "translation" : [
                -22.86669158935547,
                -37.841346740722656,
                0
            ]
        },
        {
            "mesh" : 7,
            "name" : "open.001",
            "scale" : [
                12.421310424804688,
                12.421310424804688,
                12.421299934387207
            ],
            "translation" : [
                -22.86669158935547,
                -37.841346740722656,
                -10.016828536987305
            ]
        },
        {
            "mesh" : 8,
            "name" : "open.008",
            "scale" : [
                12.421310424804688,
                12.421310424804688,
                12.421299934387207
            ],
            "translation" : [
                -22.86669158935547,
                -37.841346740722656,
                -20.5395565032959
            ]
        },
        {
            "mesh" : 9,
            "name" : "closed",
            "scale" : [
                10.996322631835938,
                10.996329307556152,
                10.996329307556152
            ],
            "translation" : [
                20.851877212524414,
                -13.56607437133789,
                10.409239768981934
            ]
        },
        {
            "mesh" : 10,
            "name" : "locked",
            "scale" : [
                9.447112083435059,
                9.447117805480957,
                9.447117805480957
            ],
            "translation" : [
                -17.264450073242188,
                -0.2439098358154297,
                -37.18817138671875
            ]
        },
        {
            "mesh" : 11,
            "name" : "locked.006",
            "scale" : [
                9.447112083435059,
                9.447117805480957,
                9.447117805480957
            ],
            "translation" : [
                -27.28127670288086,
                3.4997527599334717,
                -44.958797454833984
            ]
        },
        {
            "mesh" : 12,
            "name" : "locked.005",
            "scale" : [
                9.447112083435059,
                9.447117805480957,
                9.447117805480957
            ],
            "translation" : [
                -35.578041076660156,
                7.648136138916016,
                -53.215087890625
            ]
        },
        {
            "mesh" : 13,
            "name" : "locked.004",
            "scale" : [
                9.447112083435059,
                9.447117805480957,
                9.447117805480957
            ],
            "translation" : [
                -43.97598648071289,
                10.582358360290527,
                -61.5706787109375
            ]
        },
        {
            "mesh" : 14,
            "name" : "locked.003",
            "scale" : [
                9.447112083435059,
                9.447117805480957,
                9.447117805480957
            ],
            "translation" : [
                -23.15313148498535,
                2.1641764640808105,
                -40.830650329589844
            ]
        },
        {
            "mesh" : 15,
            "name" : "locked.002",
            "scale" : [
                9.447112083435059,
                9.447117805480957,
                9.447117805480957
            ],
            "translation" : [
                -32.502166748046875,
                6.049489974975586,
                -49.329776763916016
            ]
        },
        {
            "mesh" : 16,
            "name" : "locked.001",
            "scale" : [
                9.447112083435059,
                9.447117805480957,
                9.447117805480957
            ],
            "translation" : [
                -40.39421081542969,
                9.206306457519531,
                -57.58606719970703
            ]
        }
    ],
    "materials" : [
        {
            "doubleSided" : true,
            "name" : "Door Open",
            "pbrMetallicRoughness" : {
                "baseColorFactor" : [
                    1,
                    0,
                    0,
                    1
                ],
                "metallicFactor" : 0,
                "roughnessFactor" : 0.5
            }
        }
    ],
    "meshes" : [
        {
            "name" : "Icosphere",
            "primitives" : [
                {
                    "attributes" : {
                        "POSITION" : 0
                    },
                    "indices" : 1,
                    "material" : 0
                }
            ]
        },
        {
            "name" : "Icosphere.001",
            "primitives" : [
                {
                    "attributes" : {
                        "POSITION" : 2
                    },
                    "indices" : 1,
                    "material" : 0
                }
            ]
        },
        {
            "name" : "Icosphere.002",
            "primitives" : [
                {
                    "attributes" : {
                        "POSITION" : 3
                    },
                    "indices" : 1
                }
            ]
        },
        {
            "name" : "Icosphere.003",
            "primitives" : [
                {
                    "attributes" : {
                        "POSITION" : 4
                    },
                    "indices" : 1
                }
            ]
        },
        {
            "name" : "Icosphere.004",
            "primitives" : [
                {
                    "attributes" : {
                        "POSITION" : 5
                    },
                    "indices" : 1
                }
            ]
        },
        {
            "name" : "Icosphere.005",
            "primitives" : [
                {
                    "attributes" : {
                        "POSITION" : 6
                    },
                    "indices" : 1
                }
            ]
        },
        {
            "name" : "Icosphere.006",
            "primitives" : [
                {
                    "attributes" : {
                        "POSITION" : 7
                    },
                    "indices" : 1
                }
            ]
        },
        {
            "name" : "Icosphere.007",
            "primitives" : [
                {
                    "attributes" : {
                        "POSITION" : 8
                    },
                    "indices" : 1
                }
            ]
        },
        {
            "name" : "Icosphere.008",
            "primitives" : [
                {
                    "attributes" : {
                        "POSITION" : 9
                    },
                    "indices" : 1
                }
            ]
        },
        {
            "name" : "Icosphere.009",
            "primitives" : [
                {
                    "attributes" : {
                        "POSITION" : 10
                    },
                    "indices" : 1
                }
            ]
        },
        {
            "name" : "Icosphere.010",
            "primitives" : [
                {
                    "attributes" : {
                        "POSITION" : 11
                    },
                    "indices" : 1
                }
            ]
        },
        {
            "name" : "Icosphere.011",
            "primitives" : [
                {
                    "attributes" : {
                        "POSITION" : 12
                    },
                    "indices" : 1
                }
            ]
        },
        {
            "name" : "Icosphere.012",
            "primitives" : [
                {
                    "attributes" : {
                        "POSITION" : 13
                    },
                    "indices" : 1
                }
            ]
        },
        {
            "name" : "Icosphere.013",
            "primitives" : [
                {
                    "attributes" : {
                        "POSITION" : 14
                    },
                    "indices" : 1
                }
            ]
        },
        {
            "name" : "Icosphere.014",
            "primitives" : [
                {
                    "attributes" : {
                        "POSITION" : 15
                    },
                    "indices" : 1
                }
            ]
        },
        {
            "name" : "Icosphere.015",
            "primitives" : [
                {
                    "attributes" : {
                        "POSITION" : 16
                    },
                    "indices" : 1
                }
            ]
        },
        {
            "name" : "Icosphere.016",
            "primitives" : [
                {
                    "attributes" : {
                        "POSITION" : 17
                    },
                    "indices" : 1
                }
            ]
        }
    ],
    "accessors" : [
        {
            "bufferView" : 0,
            "componentType" : 5126,
            "count" : 42,
            "max" : [
                0.9510578513145447,
                0.9999999403953552,
                1
            ],
            "min" : [
                -0.9510578513145447,
                -0.9999999403953552,
                -1
            ],
            "type" : "VEC3"
        },
        {
            "bufferView" : 1,
            "componentType" : 5123,
            "count" : 240,
            "type" : "SCALAR"
        },
        {
            "bufferView" : 2,
            "componentType" : 5126,
            "count" : 42,
            "max" : [
                0.9510578513145447,
                0.9999999403953552,
                1
            ],
            "min" : [
                -0.9510578513145447,
                -0.9999999403953552,
                -1
            ],
            "type" : "VEC3"
        },
        {
            "bufferView" : 3,
            "componentType" : 5126,
            "count" : 42,
            "max" : [
                0.9510578513145447,
                0.9999999403953552,
                1
            ],
            "min" : [
                -0.9510578513145447,
                -0.9999999403953552,
                -1
            ],
            "type" : "VEC3"
        },
        {
            "bufferView" : 4,
            "componentType" : 5126,
            "count" : 42,
            "max" : [
                0.9510578513145447,
                0.9999999403953552,
                1
            ],
            "min" : [
                -0.9510578513145447,
                -0.9999999403953552,
                -1
            ],
            "type" : "VEC3"
        },
        {
            "bufferView" : 5,
            "componentType" : 5126,
            "count" : 42,
            "max" : [
                0.9510578513145447,
                0.9999999403953552,
                1
            ],
            "min" : [
                -0.9510578513145447,
                -0.9999999403953552,
                -1
            ],
            "type" : "VEC3"
        },
        {
            "bufferView" : 6,
            "componentType" : 5126,
            "count" : 42,
            "max" : [
                0.9510578513145447,
                0.9999999403953552,
                1
            ],
            "min" : [
                -0.9510578513145447,
                -0.9999999403953552,
                -1
            ],
            "type" : "VEC3"
        },
        {
            "bufferView" : 7,
            "componentType" : 5126,
            "count" : 42,
            "max" : [
                0.9510578513145447,
                0.9999999403953552,
                1
            ],
            "min" : [
                -0.9510578513145447,
                -0.9999999403953552,
                -1
            ],
            "type" : "VEC3"
        },
        {
            "bufferView" : 8,
            "componentType" : 5126,
            "count" : 42,
            "max" : [
                0.9510578513145447,
                0.9999999403953552,
                1
            ],
            "min" : [
                -0.9510578513145447,
                -0.9999999403953552,
                -1
            ],
            "type" : "VEC3"
        },
        {
            "bufferView" : 9,
            "componentType" : 5126,
            "count" : 42,
            "max" : [
                0.9510578513145447,
                0.9999999403953552,
                1
            ],
            "min" : [
                -0.9510578513145447,
                -0.9999999403953552,
                -1
            ],
            "type" : "VEC3"
        },
        {
            "bufferView" : 10,
            "componentType" : 5126,
            "count" : 42,
            "max" : [
                0.9510578513145447,
                0.9999999403953552,
                1
            ],
            "min" : [
                -0.9510578513145447,
                -0.9999999403953552,
                -1
            ],
            "type" : "VEC3"
        },
        {
            "bufferView" : 11,
            "componentType" : 5126,
            "count" : 42,
            "max" : [
                0.9510578513145447,
                0.9999999403953552,
                1
            ],
            "min" : [
                -0.9510578513145447,
                -0.9999999403953552,
                -1
            ],
            "type" : "VEC3"
        },
        {
            "bufferView" : 12,
            "componentType" : 5126,
            "count" : 42,
            "max" : [
                0.9510578513145447,
                0.9999999403953552,
                1
            ],
            "min" : [
                -0.9510578513145447,
                -0.9999999403953552,
                -1
            ],
            "type" : "VEC3"
        },
        {
            "bufferView" : 13,
            "componentType" : 5126,
            "count" : 42,
            "max" : [
                0.9510578513145447,
                0.9999999403953552,
                1
            ],
            "min" : [
                -0.9510578513145447,
                -0.9999999403953552,
                -1
            ],
            "type" : "VEC3"
        },
        {
            "bufferView" : 14,
            "componentType" : 5126,
            "count" : 42,
            "max" : [
                0.9510578513145447,
                0.9999999403953552,
                1
            ],
            "min" : [
                -0.9510578513145447,
                -0.9999999403953552,
                -1
            ],
            "type" : "VEC3"
        },
        {
            "bufferView" : 15,
            "componentType" : 5126,
            "count" : 42,
            "max" : [
                0.9510578513145447,
                0.9999999403953552,
                1
            ],
            "min" : [
                -0.9510578513145447,
                -0.9999999403953552,
                -1
            ],
            "type" : "VEC3"
        },
        {
            "bufferView" : 16,
            "componentType" : 5126,
            "count" : 42,
            "max" : [
                0.9510578513145447,
                0.9999999403953552,
                1
            ],
            "min" : [
                -0.9510578513145447,
                -0.9999999403953552,
                -1
            ],
            "type" : "VEC3"
        },
        {
            "bufferView" : 17,
            "componentType" : 5126,
            "count" : 42,
            "max" : [
                0.9510578513145447,
                0.9999999403953552,
                1
            ],
            "min" : [
                -0.9510578513145447,
                -0.9999999403953552,
                -1
            ],
            "type" : "VEC3"
        }
    ],
    "bufferViews" : [
        {
            "buffer" : 0,
            "byteLength" : 504,
            "byteOffset" : 0
        },
        {
            "buffer" : 0,
            "byteLength" : 480,
            "byteOffset" : 504
        },
        {
            "buffer" : 0,
            "byteLength" : 504,
            "byteOffset" : 984
        },
        {
            "buffer" : 0,
            "byteLength" : 504,
            "byteOffset" : 1488
        },
        {
            "buffer" : 0,
            "byteLength" : 504,
            "byteOffset" : 1992
        },
        {
            "buffer" : 0,
            "byteLength" : 504,
            "byteOffset" : 2496
        },
        {
            "buffer" : 0,
            "byteLength" : 504,
            "byteOffset" : 3000
        },
        {
            "buffer" : 0,
            "byteLength" : 504,
            "byteOffset" : 3504
        },
        {
            "buffer" : 0,
            "byteLength" : 504,
            "byteOffset" : 4008
        },
        {
            "buffer" : 0,
            "byteLength" : 504,
            "byteOffset" : 4512
        },
        {
            "buffer" : 0,
            "byteLength" : 504,
            "byteOffset" : 5016
        },
        {
            "buffer" : 0,
            "byteLength" : 504,
            "byteOffset" : 5520
        },
        {
            "buffer" : 0,
            "byteLength" : 504,
            "byteOffset" : 6024
        },
        {
            "buffer" : 0,
            "byteLength" : 504,
            "byteOffset" : 6528
        },
        {
            "buffer" : 0,
            "byteLength" : 504,
            "byteOffset" : 7032
        },
        {
            "buffer" : 0,
            "byteLength" : 504,
            "byteOffset" : 7536
        },
        {
            "buffer" : 0,
            "byteLength" : 504,
            "byteOffset" : 8040
        },
        {
            "buffer" : 0,
            "byteLength" : 504,
            "byteOffset" : 8544
        }
    ],
    "buffers" : [
        {
            "byteLength" : 9048,
            "uri" : "point-categorization.bin"
        }
    ]
}
